<?xml version="1.0" encoding="utf-8"?>
<!-- Generator: Adobe Illustrator 22.1.0, SVG Export Plug-In . SVG Version: 6.00 Build 0)  -->
<svg version="1.1" id="Layer_1" xmlns="http://www.w3.org/2000/svg" xmlns:xlink="http://www.w3.org/1999/xlink" x="0px" y="0px"
	 viewBox="0 0 140 45" style="enable-background:new 0 0 140 45;" xml:space="preserve">
<style type="text/css">
	.st0{fill:#FFFFFF;}
	.st1{stroke:#000000;stroke-width:0.1;stroke-miterlimit:10;}
	.st2{fill:#231F20;}
</style>
<g>
	<polygon points="18,16.3 124.2,16.3 124.2,34 18,34 18,16.3 	"/>
	<path class="st0" d="M38.9,28.3l2.9-8.1h4.1l0,0c1,0,1.5,0.5,1.4,1.4l0,0l-0.2,2.7l2.7-4.1h5.6l-3,8.1h-3.5l2-5.5l-3.8,5.5h-3
		l0.3-5.6l-2.1,5.6H38.9L38.9,28.3L38.9,28.3z"/>
	<polygon class="st0" points="54.6,28.3 57.5,20.2 61.4,20.2 58.4,28.3 54.6,28.3 	"/>
	<polygon class="st0" points="73.8,20.2 70.8,28.3 74.4,28.3 75.6,25.5 77.4,25.5 76.4,28.3 80.2,28.3 83,20.2 79.3,20.2 78.3,23 
		76.3,23.1 77.4,20.2 73.8,20.2 	"/>
	<polygon class="st0" points="85.2,20.2 93.3,20.2 92.5,22.3 88.2,22.3 87.8,23.1 92.3,23.1 91.4,25.3 87,25.3 86.8,26 91.3,26 
		90.3,28.3 82.3,28.3 85.2,20.2 	"/>
	<polygon class="st0" points="95.3,20.2 92.3,28.3 99.8,28.3 100.9,25.5 97,25.5 99,20.2 95.3,20.2 	"/>
	<polygon class="st0" points="101,28.3 103.9,20.2 107.8,20.2 104.8,28.3 101,28.3 	"/>
	<path class="st0" d="M107,28.3l2.9-8.1h4.3l0,0c0.8,0,1.4,0.4,1.3,1.1l0,0l-0.2,4l2-5.1h3.2l-2.9,8.1h-5.5l0.2-5.6l-2,5.6H107
		L107,28.3L107,28.3z"/>
	<path class="st0" d="M70.1,25.6l-1,2.5l0,0c-0.9,0.2-1.9,0.3-2.8,0.3c-1.2,0-2.7-0.2-3.9-1c-0.4-0.4-0.8-0.9-0.9-1.7
		c0-0.4,0-0.9,0.2-1.3c1-2.6,3.5-4,7.7-4.3c1,0,1.8,0.1,2.6,0.5l0,0l-1.1,2.7l0,0c-0.3-0.4-0.7-0.8-1.4-0.8c-0.3,0-0.6,0-0.9,0
		c-1.7,0.4-2.5,1.1-2.6,2c0,0.3,0,0.5,0,0.7c0.2,0.7,1.7,0.9,2,0.9C68.6,26,69.3,25.9,70.1,25.6L70.1,25.6L70.1,25.6L70.1,25.6z"/>
	<polygon class="st0" points="18,30.8 104,30.8 103.5,31.9 18,31.9 18,30.8 	"/>
	<path class="st0" d="M28.6,6.1c0.8,0,0.9,0.3,1,0.6c1,0.1,1.4,0.9,1.5,1.9c0.9,1.1,0.9,2,0.4,2.8c1,0.2,2,0.5,2.9,1.1
		c0.9,0.5,1.3,1.2,1.1,2.1c0.9,1.1,0.8,1.9,0.6,2.8l0,0l0,0c0.4,0.4,0.6,0.9,0.6,1.5c1,0.4,1.4,1.3,0.9,2.7c0.2,0.1,0.4,0.2,0.6,0.3
		c1.9,1.8,1.3,3.2-0.5,2.9c-0.7,0.4-1.3,0.7-1.5-0.1c-0.1-0.2-0.2-0.4-0.4-0.6c-0.5-0.1-0.5-0.5-0.3-1.1c-0.6-0.1-1.1-0.3-1.5-0.7
		c0,0.8-0.2,1.4-0.5,2c0.3,1.3,0,2-0.7,2.5c0,0.5,0,0.9,0,1.4c0.5,0.9,0.4,1.7-0.4,2.5c0,1.2-0.3,2.2-1.3,2.6
		c0.1,0.3,0.2,0.6,0.3,0.9c0.5,0.4,1.1,0.8,1.6,1.2c0.1,0.3,0.2,0.7,0.3,1c0,0.6-0.5,1.1-1.6,1.4c-0.6,0-1.1-0.1-1.7-0.1
		c-0.2-0.3-0.5-0.5-0.8-0.8c-0.3-0.4-0.6-0.7-0.9-1.1c-0.7-0.8-0.9-1.7-0.1-2.9c-0.9-0.3-1.2-1.5-1-3.2c-0.1-0.2-0.2-0.5-0.3-0.7
		c0,0.1-0.2,0.3-0.2,0.4c0,1.5-0.5,2.3-1.2,2.9c-0.4,1.4-1.1,1.9-1.9,1.9c-0.4,0.4-0.5,0.9-0.4,1.5c0.1,0.6,0.4,1.3,0.3,1.9
		c-0.4,2.2-4.9,1.1-4.7-1c0.2-1.1,1.6-1.9,1.9-3.1c-0.9-1-1.3-2-0.3-3.4c-0.3-1.6,0.3-2.6,1.4-3.3c-0.3-1.2-0.2-2.3,0.5-3.3
		c-0.3-1.3-0.1-2.1,0.5-2.4c-0.3-0.5-0.3-1.2-0.1-1.9c-0.1-0.3-0.1-0.5-0.2-0.8c-0.1,0-0.1,0-0.2,0c-0.7-0.1-1.3-0.5-1.7-1.3
		c-1.1-0.1-1.9-0.8-2.3-2.2c-0.5-0.4-0.9-1-1-1.9c-0.4-0.7-0.4-1.4,0.1-2c-0.4-0.2-0.8-0.4-1-1.3c-0.3-0.1-0.4-1.1-0.3-2.3
		c-0.3-0.1-0.4-0.4-0.3-0.8c0.1-0.1,0.2-0.2,0.3-0.3c0.1-0.1,0.2-0.2,0.4-0.4c0.3,0,0.7,0,0.9,0.3c0.8-0.1,1.1,0.3,1.4,0.8
		c0.6-0.4,1.2-0.4,1.6,0.5c0,0.3-0.1,0.5-0.3,0.7c0.3,0.5,0.5,1,0.4,1.5c0.4,0.3,0.9,0.8,0.9,1.2c-0.1-0.1,0.4,0.2,1,0.8
		c0.6,0,1.2,0,1.6,0.2c0.5-0.3,1.1-0.3,1.6-0.3c-0.2-0.8-0.4-1.5,0.2-2.3c-0.1-1.2,0.3-2.1,1.4-2.6C27.5,6.3,27.8,6.1,28.6,6.1
		L28.6,6.1L28.6,6.1L28.6,6.1z"/>
	<path class="st1" d="M38.3,21.8c-0.2-0.1-0.4-0.2-0.6-0.3c0.4-1,0.3-1.7-0.2-2.2c-0.1-0.1-0.2-0.2-0.4-0.3
		c-0.1-0.1-0.2-0.1-0.3-0.2c0-0.1,0-0.3-0.1-0.4c-0.1-0.4-0.3-0.8-0.5-1c0,0,0-0.1-0.1-0.1l0,0l0,0l0,0c0-0.1,0.1-0.2,0.1-0.4
		c0.1-0.3,0.1-0.7,0-1.1c0-0.1-0.1-0.3-0.1-0.4c-0.1-0.3-0.3-0.5-0.5-0.8l-0.1-0.1c0.2-0.9-0.2-1.7-1.1-2.1l0,0
		c-0.1,0-0.1-0.1-0.2-0.1c-0.8-0.5-1.7-0.8-2.7-0.9c0.4-0.7,0.5-1.5-0.2-2.5c-0.1-0.1-0.1-0.2-0.2-0.3c-0.1-1-0.5-1.7-1.5-1.9l0,0
		c-0.1-0.3-0.2-0.5-0.6-0.6c-0.1,0-0.3,0-0.5,0c-0.2,0-0.3,0-0.5,0c-0.4,0.1-0.6,0.3-0.8,0.6c-1,0.5-1.5,1.4-1.4,2.6
		c-0.6,0.8-0.4,1.5-0.1,2.3c-0.1,0-0.3,0-0.5,0c-0.3,0-0.7,0.1-1.1,0.3c-0.5-0.2-1-0.3-1.6-0.2c-0.4-0.3-0.7-0.6-0.9-0.7
		c-0.1-0.1-0.1-0.1-0.2-0.1c0-0.4-0.6-0.9-0.9-1.2c0.1-0.5-0.1-1-0.4-1.5c0.1-0.2,0.2-0.5,0.3-0.7c-0.2-0.3-0.3-0.5-0.5-0.6
		c-0.3-0.2-0.7-0.1-1.1,0.1c-0.1-0.3-0.3-0.5-0.6-0.7c-0.2-0.1-0.5-0.2-0.8-0.1c-0.2-0.3-0.6-0.3-0.9-0.2c-0.1,0.1-0.2,0.2-0.4,0.3
		c0,0.1-0.2,0.2-0.3,0.3c-0.1,0.4,0,0.7,0.2,0.8c0,1.2,0,2.1,0.4,2.4c0.1,0.8,0.6,1,1,1.3c-0.5,0.6-0.5,1.3-0.1,2
		c0,0.8,0.4,1.4,0.9,1.8c0,0,0,0,0.1,0c0.4,1,0.9,1.7,1.6,2c0.2,0.1,0.5,0.1,0.7,0.2c0.3,0.5,0.6,0.8,1,1.1c0.2,0.1,0.5,0.2,0.7,0.2
		c0.1,0,0.1,0,0.2,0c0.1,0.3,0.1,0.5,0.2,0.8c-0.1,0.8-0.1,1.4,0.1,1.9c-0.6,0.3-0.8,1.1-0.5,2.4c-0.7,0.9-0.8,2-0.5,3.3
		c0,0-0.1,0.1-0.2,0.2c-0.9,0.7-1.4,1.7-1.1,3.1c-1,1.4-0.6,2.5,0.3,3.4c-0.1,0.6-0.5,1-0.9,1.5c-0.5,0.5-0.9,1-1,1.7s0.4,1.3,1,1.7
		c0.5,0.3,1.1,0.5,1.7,0.5c0.9,0,1.8-0.3,1.9-1.2c0.1-0.6-0.2-1.3-0.3-1.9s0-1.1,0.4-1.5l0,0l0,0l0,0l0,0c0.6,0,1.2-0.3,1.6-1.2
		c0.1-0.2,0.2-0.5,0.3-0.7c0.7-0.5,1.2-1.4,1.2-2.9c0-0.1,0.2-0.3,0.2-0.4c0.1,0.2,0.1,0.6,0.2,0.8c-0.3,1.5,0.1,2.6,0.9,3
		c0.1,0,0.1,0,0.2,0.1l0,0l0,0l0,0c-0.1,0.1-0.1,0.2-0.2,0.3c-0.5,0.9-0.4,1.5,0,2.2c0.1,0.1,0.2,0.3,0.3,0.4
		c0.2,0.3,0.4,0.5,0.6,0.8c0.1,0.1,0.2,0.2,0.3,0.4c0.1,0.1,0.2,0.3,0.3,0.4c0.1,0.2,0.3,0.3,0.5,0.4c0.4,0.1,0.8,0.1,1.3,0.1
		c0.1,0,0.3,0,0.5,0c1.1-0.3,1.6-0.8,1.6-1.4c0-0.4,0-0.7-0.3-1c-0.5-0.4-1.1-0.8-1.6-1.2c-0.1-0.2-0.1-0.4-0.2-0.6
		c0-0.1-0.1-0.2-0.1-0.3h0.1c0.9-0.4,1.2-1.3,1.2-2.5c0.8-0.8,0.9-1.6,0.4-2.5c0-0.5,0-0.9,0-1.4c0.6-0.5,1-1.3,0.7-2.5
		c0.3-0.6,0.5-1.2,0.5-2c0,0,0.1,0,0.1,0.1c0.1,0.1,0.1,0.1,0.2,0.2c0.4,0.3,0.8,0.4,1.2,0.4l0,0l0,0l0,0l0,0
		c-0.2,0.4-0.2,0.7,0,0.9c0.1,0.1,0.2,0.1,0.3,0.1c0.1,0.1,0.1,0.2,0.2,0.4c0,0.1,0.1,0.1,0.1,0.2c0,0,0,0,0,0.1
		c0.1,0.3,0.3,0.4,0.5,0.5c0.1,0,0.3,0,0.4-0.1c0.1,0,0.2-0.1,0.4-0.2c0.1-0.1,0.2-0.1,0.3-0.2c0.9,0.2,1.6-0.1,1.7-0.7l0,0v-0.4
		l0,0C39.3,23.1,39,22.5,38.3,21.8L38.3,21.8L38.3,21.8L38.3,21.8z M36.1,18.7c0,0.1,0,0.1,0,0.2l0,0l0,0l0,0c0,0,0,0,0,0.1
		s-0.1,0.2-0.2,0.3c-0.1,0.1-0.1,0.2-0.2,0.3c0,0.1-0.1,0.1-0.1,0.1c-0.1,0.1-0.1,0.1-0.2,0.2c-0.1,0.1-0.1,0.1-0.2,0.2
		c-0.1,0.1-0.2,0.1-0.3,0.2c-0.1,0-0.1,0-0.2,0.1c-0.1,0-0.2,0-0.3,0h-0.1h-0.1l0,0l0,0v-0.2v-0.4l0,0l0.1-0.1l0,0l0.2-0.3v-0.1
		l0.2-0.4l0.1-0.4v-0.1l0,0c0.1,0,0.1,0,0.2,0l0,0l0.1-0.1l0,0c0.1,0,0.1-0.1,0.2-0.2s0.1-0.1,0.2-0.2c0-0.1,0.1-0.1,0.1-0.2l0,0
		l0,0l0.1,0.1l0,0C35.9,18,36,18.4,36.1,18.7L36.1,18.7L36.1,18.7L36.1,18.7z M35.1,15.4c0-0.1,0.1-0.1,0.1-0.2
		c0.1,0.1,0.2,0.3,0.3,0.4c0,0.1,0.1,0.2,0.1,0.3s0.1,0.1,0.1,0.2c0,0.1,0,0.3,0,0.4c-0.1,0.4-0.3,0.9-0.4,1l0,0l-0.1,0.1l0,0
		c0,0.1-0.1,0.1-0.1,0.2c-0.2,0-0.2,0.1-0.3,0.1l0,0v-0.3L34.8,17l-0.1-0.5l-0.2-0.4V16l0,0l0.1-0.1l0.1-0.2h0.1l0.1-0.1l0,0
		C34.9,15.5,34.9,15.5,35.1,15.4L35.1,15.4L35.1,15.4L35.1,15.4L35.1,15.4z M34,12.9c0.1,0,0.1,0.1,0.2,0.1c0,0,0.1,0,0.1,0.1
		l0.1,0.1c0.3,0.2,0.5,0.4,0.5,0.8c0,0.2,0,0.4,0,0.6l0,0l0,0l0,0c-0.1,0.1-0.1,0.2-0.1,0.3s-0.1,0.1-0.1,0.2l-0.1,0.1l0,0v-0.3
		l-0.1-0.4l-0.1-0.3l-0.1-0.1l-0.2-0.3L34,13.6l-0.2-0.3v-0.1v-0.1v-0.1V13l0,0c0-0.1,0-0.1,0-0.2C33.9,12.8,33.9,12.9,34,12.9
		L34,12.9L34,12.9L34,12.9z M33.6,13.7l0.1,0.2l0.2,0.4l0.1,0.4l0.1,0.3v0.2v0.1l0,0v0.3L34,15.9l-0.1,0.3l-0.2,0.3l-0.2,0.2
		l-0.2,0.2L33,17l-0.3,0.2l-0.4,0.2L32,17.5l-0.4,0.1h-0.2l-0.2,0.1l-0.5,0.1L30.1,18h-0.5h-0.1h-0.3H29h-0.2h-0.5h-0.2l-0.3-0.1
		h-0.4L27,17.8l-0.4-0.1l-0.4-0.1l-0.4-0.2l-0.3-0.2L25.2,17l0,0l-0.1-0.1l0.1-0.2l0,0l0.1-0.2l0.1-0.2l0.1-0.2l0.1-0.2v-0.2v-0.2
		v-0.2v-0.4v-0.2l0,0h0.2l0.3,0.1l0.3,0.1h0.3L27,15h0.3l0.6,0.1h0.2h0.4H29h0.2h0.4h0.2l0.6-0.1h0.3H31l0.3-0.1l0,0l0.3-0.1
		l0.2-0.1l0.3-0.1l0.3-0.1l0.2-0.1l0.2-0.1l0.2-0.1l0.2-0.1l0.2-0.2L33.6,13.7L33.6,13.7L33.6,13.7L33.6,13.7z M24.8,12.5
		c0.1-0.1,0.3-0.2,0.5-0.2c0.5-0.1,1.1-0.1,1.4,0.1c0.1,0.1,0.3,0,0.4,0l0,0L26.8,12l0.2-0.3l-0.6-0.5l0,0c-0.2-0.4-0.4-0.8-0.3-1.3
		c0-0.2,0.3-0.4,0.4-0.6l0,0L27,9.1l-0.1-0.1l-0.3-0.2l0,0c0-0.5,0-0.8,0.3-1.2c0.2-0.2,0.4-0.3,0.6-0.4l0,0l0.2-0.1l0,0
		c0.1-0.1,0.2-0.3,0.4-0.4l0,0C28.5,6.5,29,6.6,29,7.1l0,0l0,0l0.2,0.1l0,0c0.1,0,0.2,0,0.3,0.1c0.1,0.1,0.3,0.1,0.4,0.2
		c0.4,0.3,0.5,1.1,0.5,1.6c0.8,0.6,0.8,1.2,0.4,2l0,0l-0.3,0.3v0.4l-0.3,0.5l0,0c0.4-0.3,0.7-0.4,1.1-0.4c0.2,0,0.4,0.1,0.6,0.1
		c0.5,0.1,0.9,0.3,1.3,0.5c0,0.1,0.1,0.3,0.1,0.4s0.1,0.2,0,0.3c0,0.1-0.1,0.2-0.2,0.3l0,0L33,13.6l-0.1,0.1l-0.1,0.1l-0.2,0.1
		L32.4,14l-0.2,0.1L32,14.2l-0.3,0.1l-0.3,0.1h-0.1h-0.1l-0.3,0.1l-0.6,0.1l-0.5,0.1h-0.2h-0.4h-0.1h-0.5h-0.5H28l-0.6-0.1l-0.6-0.1
		l-0.3-0.1l-0.3-0.1l-0.3-0.1l-0.2,0h-0.1L25.5,14l-0.1-0.3l-0.1-0.2l-0.1-0.2l0,0l-0.1-0.2l-0.2-0.3l-0.2-0.2l-0.1-0.1l0,0
		C24.7,12.5,24.7,12.5,24.8,12.5L24.8,12.5L24.8,12.5L24.8,12.5z M18.2,10.9L18.2,10.9l-0.4-0.5l0,0c-0.3-0.2-0.6-0.3-0.7-0.6
		c-0.2-0.2-0.3-0.5-0.4-0.8c-0.1-0.3-0.2-0.9,0-1.1c0.1-0.3,0.2,0,0.3,0.4c0.2,0.9,0.5,1.2,0.5,1c0-0.3,0-0.1,0-0.3
		c0-0.2-0.6-1.7-0.8-1.6c-0.1,0-0.2-0.2-0.2-0.5c0.3-0.1,0.7,0.5,1.4,1.7c0,0.1,0.1,0,0.2,0c0.1,0-1.2-2-1.2-1.9l0,0H17l0,0
		c0.5,0.2,0.9,0.8,1.1,1.5c0,0.1,0.1,0.2,0.1,0.2c0,0.1,0.2,0.1,0.2,0c0-0.4-0.1-0.6-0.2-0.9c-0.1-0.2-0.3-0.5-0.4-0.7
		c0.2,0,0.3,0.1,0.4,0.2s0.1,0.1,0.1,0.2c0.2,0.2,0.3,0.4,0.3,0.7c0.1,0.4,0.2,0.9,0.1,1.4c0.2,0,0.4-0.2,0.5-0.8
		c-0.2-0.4-0.1-0.7,0.1-1c0.2-0.1,0.2-0.1,0.3,0l0,0l0.1,0.1l0,0c0,0.2-0.1,0.7,0,0.9c0,0.4,0.1,0.4,0.2,0.8c0,0.2-0.2,1.9,0,2.1
		c0,0,0,0,0.1,0c0.1-0.2,0.5-1,0.5-1c0.3,0.2,0.1,0,0.3,0.4c0,0,0,0.1,0,0.2l0,0v0.5l0,0l0,0c0,0.1,0,0.3-0.1,0.4l0,0l-0.1,0.2
		l-0.1,0.2l-0.2,0.2l-0.1,0.2L20,12.8l-0.1,0.1l0,0h-0.2h-0.2h-0.2H19L18.8,13l0,0c-0.2,0-0.3-0.1-0.4-0.1l0,0l-0.2-0.1h-0.1l0,0
		l0,0c0,0,0,0,0-0.1c-0.4-0.4-0.6-0.9-0.1-1.4c0.1,0.1,0.1,0.1,0.2,0.2c0.4,0.3,0.7,0.3,0.9,0.1C18.8,11.6,18.4,11.4,18.2,10.9
		L18.2,10.9L18.2,10.9L18.2,10.9z M18.8,14.5l-0.3-0.2l0,0c-0.1-0.1-0.2-0.2-0.3-0.4c-0.1-0.1-0.1-0.2-0.1-0.4
		C18,13.4,18,13.3,18,13.2c0.1,0,0.1,0,0.2,0.1l0,0l0,0l0.3,0.1l0.3,0.1h0.3h0.3h0.3l0.2-0.1l0,0l0.2-0.1l0.1-0.1l0.1-0.1l0.3-0.2
		l0.2-0.2l0.1-0.2l0.1-0.3l0.2-0.3l0,0c0-0.1,0.1-0.2,0.1-0.3l0,0h0.1l0,0c0.1,0.1,0.2,0.1,0.3,0.2c0,0,0,0.1,0.1,0.1l0,0V12v0.4
		v0.2v0.2v0.1v0.2v0.1v0.1v0.1l0,0v0.1l-0.3,0.3v0.1L21.4,14l-0.1,0.1l-0.1,0.1l-0.1,0.1L21,14.4h-0.1l-0.1,0.1h-0.2h-0.1h-0.1h-0.2
		H20h-0.1l0,0h-0.2h-0.2h-0.2h-0.2h-0.2H18.8L18.8,14.5L18.8,14.5z M21,16.4L21,16.4L21,16.4c-0.1,0-0.2-0.1-0.3-0.1
		c-0.3,0-0.5-0.1-0.8-0.3c-0.4-0.2-0.7-0.5-0.9-1l0,0l0,0h0.2h0.2h0.2h0.2l0,0h0.1h0.2h0.2h0.2h0.2l0.2-0.1l0.1-0.1l0.1-0.1l0.1-0.1
		l0.1-0.1l0.1-0.1l0.1-0.1l0.3-0.1l0.1-0.1l0.1-0.2l0.1-0.1l0.1-0.2v-0.2v-0.2V13v-0.2v-0.2v-0.2l0,0l0,0l0,0c0.2,0,0.3,0,0.5,0l0,0
		l0,0l0.2,0.5l0.2,0.4l0.1,0.4v0.2v0.2v0.2v0.2v0.2v0.2v0.1v0.1v0.1l-0.1,0.1v0.1L23,15.5l-0.1,0.1l-0.1,0.1l-0.1,0.1l-0.1,0.1
		L22.5,16l-0.2,0.1l-0.2,0.1l-0.2,0.1l-0.2,0.1h-0.1h-0.2l-0.2,0.1L21,16.4L21,16.4L21,16.4z M21.6,17.2c-0.1-0.1-0.2-0.2-0.3-0.4
		l0,0h0.2h0.1h0.2l0.2-0.1l0.2-0.1l0.2-0.1l0.2-0.1l0.2-0.1l0.2-0.1l0.1-0.1l0.1-0.2l0.1-0.1l0.1-0.1l0.1-0.2l0.1-0.2l0.1-0.2v-0.2
		v-0.2v-0.2v-0.2v-0.2v-0.2v-0.2v-0.2l-0.1-0.2l-0.1-0.2v-0.2l-0.2-0.5l0,0l0,0c0.2,0,0.4,0.1,0.5,0.1l0,0l0.3,0.1l0.1,0.1l0.2,0.2
		l0.1,0.2l0.1,0.2l0.2,0.2l0.1,0.2l0.1,0.2l0.1,0.2l0.1,0.2v0.2l0,0v0.2v0.2V15v0.2v0.2v0.2l-0.1,0.2L25,16l-0.1,0.2l-0.1,0.2
		l-0.1,0.2l-0.1,0.2l-0.2,0L24.3,17L24,17.1l-0.2,0.1l-0.2,0.1l-0.2,0.1l-0.3,0.1h0l0,0v-0.1C22.3,17.5,21.9,17.5,21.6,17.2
		L21.6,17.2L21.6,17.2L21.6,17.2z M28.4,25l-0.2,0.1L28,25.2l0,0l-0.2,0.1l-0.2,0.1l-0.2,0.1l-0.2,0.1H27h-0.2h-0.2h-0.3h-0.2h-0.3
		l-0.3-0.1l-0.3-0.1h-0.1L25,25.3l-0.1,0.1l-0.3-0.1l-0.2-0.1l-0.2-0.2l-0.2-0.2l-0.2-0.2l-0.2-0.2L23.3,24l-0.2-0.3L23,23.5l0,0
		c-0.1-0.4-0.3-1.1,0.1-1.8l0,0l0.2-0.1l0.2,0.2l0.3,0.3l0.3,0.3l0.4,0.2l0.4,0.2l0.4,0.2l0,0l0.4,0.2l0.4,0.1l0.5,0.1l0.5,0.1
		l0.5,0.1h0.5l0,0h0.5h0.5l0,0h0.1v0.1l-0.1,0.3v0.1L29,24.4l-0.1,0.2l-0.1,0.2l-0.2,0.1L28.4,25L28.4,25L28.4,25z M28.5,27.1
		c0.1,0.1,0.3,0.1,0.4,0.2c0,0,0.1,0,0.1,0.1c0.1,0,0.2,0.1,0.3,0.1l0,0l0.3,0.1l0,0l0.2,0.1h0.3h0.3h0.3l0.3-0.1l0.3-0.1l0,0l0,0
		c0.1,0,0.3-0.1,0.4-0.1c0.1-0.1,0.3-0.1,0.4-0.2c0,0,0.1,0,0.1-0.1c0,0.3,0,0.6,0,0.9l0,0l-0.1,0.1L32,28.2l-0.1,0.1l-0.1,0.1
		l-0.1,0.1l-0.2,0.1l-0.1,0.1l0,0l-0.1,0.1L31,28.9h-0.1h-0.1h-0.2h-0.2h-0.1h-0.2H30h-0.1h-0.2h-0.1h-0.1h-0.1h-0.2l-0.1-0.1H29
		h-0.1l-0.1-0.1l-0.1-0.1l-0.1-0.1l-0.1-0.1l-0.1-0.1l-0.1-0.1l-0.1-0.3l-0.1-0.2v-0.1l0,0v-0.1l0,0l0,0l0,0c0-0.1,0.1-0.1,0.1-0.2
		s0.1-0.1,0.1-0.2C28.4,27,28.4,27,28.5,27.1L28.5,27.1L28.5,27.1L28.5,27.1z M22.9,37.3c-0.4,0.4-0.8,0.5-1.3,0.5s-1-0.3-1.5-0.6
		c0.4,0.4,0.9,0.7,1.5,0.9c0.2,0,0.5,0,0.7,0c-0.2,0.1-0.4,0.1-0.6,0.2h-0.1c-0.1,0-0.2,0-0.4,0c-0.5-0.1-1-0.3-1.4-0.7
		c-0.1-0.1-0.3-0.3-0.3-0.5c-0.1-0.1-0.1-0.3-0.1-0.4c0.1-0.3,0.2-0.5,0.4-0.7c0.1-0.1,0.1-0.2,0.2-0.3c0.4-0.4,0.7-0.9,0.9-1.3
		c0.1-0.2,0.2-0.3,0.3-0.5l0,0v-0.1l0,0l0,0c0.1,0,0.1,0.1,0.2,0.1c0.1,0.1,0.3,0.1,0.4,0.2c0.2,0.1,0.4,0.1,0.5,0.1s0.2,0,0.3,0
		c-0.2,0.4-0.3,0.7-0.3,1.5c0.1,0.3,0.1,0.5,0.2,0.8C22.9,36.7,23.1,37.2,22.9,37.3L22.9,37.3L22.9,37.3L22.9,37.3z M23.2,33.8
		c-0.1,0-0.1,0-0.1,0c-0.3,0-0.5,0-0.8-0.1c-0.1,0-0.1,0-0.2-0.1c-0.1,0-0.3-0.1-0.4-0.2c0,0-0.1,0-0.1-0.1c-0.1,0-0.2-0.1-0.3-0.2
		l0,0l-0.1-0.1l-0.1-0.1l0,0c-0.3-0.4-0.6-0.8-0.6-1.3c0-0.4,0.2-0.7,0.4-1.1l0,0l0,0l0,0l0.2,0.3l0.2,0.3l0.1,0.1l0.1,0.1l0.1,0.1
		l0,0l0.2,0.2l0.1,0.1l0.1,0.1l0.2,0.1l0.1,0.1l0.1,0.1l0.1,0.1h0.3H23l0.3,0.1h0.3H24h0.4l0.4-0.1l0,0c0,0,0,0,0.1,0
		C24.6,33.3,23.7,33.7,23.2,33.8L23.2,33.8L23.2,33.8L23.2,33.8z M25.4,31.5c0,0-0.1,0.1-0.2,0.1c-0.1,0.1-0.3,0.1-0.4,0.2
		c-0.1,0-0.1,0-0.2,0l0,0h-0.4H24h-0.3h-0.3L23,31.7l-0.2,0l-0.2-0.1l-0.2-0.1l-0.2-0.2L22,31l-0.3-0.2l-0.1-0.1l-0.1-0.1l-0.1-0.3
		l-0.1-0.3l-0.1-0.2l-0.1-0.2l0,0c0-0.5,0-0.9,0.2-1.4l0,0l0.3-0.4l0.2-0.1V28v0.2v0.2l0.1,0.2l0.1,0.2l0.1,0.2l0.1,0.2l0.1,0.2
		l0.1,0.1l0.1,0.1l0.3,0.2l0.2,0.1l0.2,0.1l0.2,0.1l0.2,0.1l0.2,0.1H24h0.2h0.2h0.2h0.2H25l0.2-0.1l0,0l0.2-0.1l0.2-0.1l0.2-0.1
		l0.2-0.1l0,0C26.1,30.5,25.9,31.1,25.4,31.5L25.4,31.5L25.4,31.5L25.4,31.5z M26.1,29.3c-0.1,0.1-0.1,0.1-0.2,0.2l0,0l-0.2,0.1
		l-0.2,0.1l-0.2,0.1h-0.1h-0.1h-0.2h-0.2h-0.2h-0.2h-0.2h-0.2h-0.2l-0.2-0.1l-0.1-0.1l-0.2-0.1l-0.1-0.1L23,29.3L23,29.1h-0.1
		L22.7,29l-0.1-0.2l-0.1-0.1l-0.1-0.1l-0.1-0.2l-0.1-0.2V28v-0.2v-0.2v-0.2v-0.2l0,0l0.3-0.2l0,0l0.3,0.3l0.3,0.3l0.3,0.2l0.3,0.2
		l0.3,0.2l0.3,0.1l0.3,0.1l0.4,0.1h0.3h0.1h0.4h0.4l0.4-0.1h0.2l0,0C26.5,28.6,26.4,29.1,26.1,29.3L26.1,29.3L26.1,29.3L26.1,29.3z
		 M27.2,27.6c-0.1,0.1-0.2,0.1-0.3,0.2l0,0h-0.1l-0.1,0.1h-0.1L26.2,28h-0.4h-0.3h-0.2h-0.2h-0.3l-0.3-0.1h-0.2L24,27.8l-0.3-0.1
		l-0.3-0.2l-0.2-0.2L23,27l-0.2-0.4l-0.2-0.3l-0.1-0.1L22.4,26l0,0l0,0c-0.1-0.5,0-0.9,0.1-1.4c0.1-0.2,0.2-0.4,0.3-0.6l0,0l0,0
		l0.2,0.3l0.2,0.3l0.2,0.3l0.2,0.2l0.3,0.2l0.3,0.2l0.3,0.2l0.3,0.1l0.1,0.1l0.3,0.1h0.1l0.2,0.1l0.3,0.1h0.3h0.3h0.3H27h0.3
		l0.3-0.1L28,26l0.3-0.1l0.2-0.1l0,0l0,0l0,0v0.1c0,0.1,0,0.2,0,0.3l0,0c0,0.1-0.1,0.3-0.1,0.4s-0.1,0.2-0.1,0.3
		c-0.1,0.1-0.1,0.2-0.2,0.3c-0.1,0.1-0.1,0.2-0.2,0.3C27.4,27.5,27.3,27.6,27.2,27.6L27.2,27.6L27.2,27.6L27.2,27.6z M31.3,34.8
		c0.4,0.3,0.9,0.5,1.4,0.8c0.1,0.1,0.1,0.3,0.1,0.4c-0.1,0.4-0.9,0.6-1.5,0.7c-0.3,0-0.5,0-0.6,0c-0.1,0.2,0.2,0.2,0.6,0.2
		c0.5,0,1.1-0.1,1.3-0.2c-0.2,0.2-0.6,0.3-0.9,0.4c-0.1,0-0.3,0-0.4,0c-0.3,0-0.6,0-1-0.1c-0.2-0.2-0.4-0.3-0.5-0.5
		c-0.1-0.1-0.1-0.2-0.2-0.3c-0.2-0.2-0.4-0.5-0.6-0.7l-0.1-0.1c-0.3-0.3-0.5-0.5-0.5-1c0-0.4,0.1-0.8,0.3-1.2l0,0l0.1-0.1l0,0
		c0.1,0,0.1,0,0.2,0.1c0.1,0,0.2,0,0.3,0s0.2,0,0.3,0h0.1c0.3,0,0.5,0,0.8-0.1c0,0.1,0,0.1,0.1,0.2c-0.9,0.1-0.9,0.5-0.6,0.6
		c0.2,0,0.4-0.1,0.7-0.2c0,0.1,0.1,0.2,0.1,0.3c-0.1,0-1,0.4-0.7,0.6c0,0,0.8-0.3,0.9-0.2C31.1,34.6,31.2,34.7,31.3,34.8L31.3,34.8
		L31.3,34.8L31.3,34.8z M31.3,32.3c-0.2,0.2-0.5,0.3-0.8,0.5c-0.3,0-0.5,0.1-0.8,0.1h-0.1c-0.1,0-0.3,0-0.4-0.1l0,0l0,0l0,0h-0.1
		c-0.2,0-0.4-0.2-0.6-0.4c-0.1-0.1-0.2-0.2-0.3-0.3c-0.1-0.1-0.1-0.2-0.1-0.3c-0.3-0.5-0.3-0.9-0.3-1.3l0,0l0,0l0.2,0.2l0,0l0.3,0.2
		l0.3,0.2l0.3,0.1l0,0l0.3,0.1h0.1h0.1l0,0h0.1h0.1h0.2H30h0.3h0.2l0.3-0.1l0.3-0.1l0,0l0.3-0.2l0.5,0l0,0
		C31.8,31.6,31.7,31.9,31.3,32.3L31.3,32.3L31.3,32.3L31.3,32.3z M32.1,30.1l-0.3,0.3l0,0l0,0c-0.1,0.1-0.2,0.1-0.3,0.2l0,0
		l-0.2,0.1h-0.1L31,30.9L30.7,31l-0.3,0.1h-0.3h-0.3h-0.3h-0.1h-0.2l0-0.2l-0.1-0.1H29l-0.2-0.2l-0.3-0.2l-0.3-0.2L28.1,30l-0.2-0.2
		l-0.1-0.1l0,0c-0.3-0.3-0.4-1.1-0.3-1.9l0.1-0.1l0,0v0.1l0.1,0.2l0.1,0.2l0.1,0.2l0.1,0.1l0.1,0.1l0.1,0.1l0.1,0.1l0.1,0.1l0.2,0.1
		l0.1,0.1l0.1,0.1l0,0l0.2,0.1l0.2,0.1h0.2l0,0h0.1h0.2H30h0.2h0.2h0.2h0.2H31l0.2-0.1h0.1h0.1l0.2-0.1l0.2-0.1l0.2-0.1l0.2-0.1
		l0.2-0.1l0.1-0.1l0,0c0.1,0.2,0.2,0.4,0.2,0.6C32.5,29.5,32.3,29.8,32.1,30.1L32.1,30.1L32.1,30.1L32.1,30.1z M32.3,26.4
		c-0.1,0.1-0.3,0.2-0.4,0.3c-0.1,0.1-0.3,0.1-0.4,0.2h-0.1c-0.1,0-0.2,0.1-0.3,0.1c-0.1,0-0.3,0-0.4,0.1c-0.1,0-0.3,0-0.4,0
		c-0.1,0-0.2,0-0.4,0c-0.1,0-0.2,0-0.3-0.1c0,0,0,0-0.1,0s-0.2-0.1-0.3-0.1c-0.1,0-0.1,0-0.2-0.1c-0.1,0-0.1-0.1-0.2-0.1
		c-0.1-0.1-0.2-0.1-0.3-0.2l0,0c0-0.1,0.1-0.3,0.1-0.4c0-0.2,0-0.4,0-0.6l0,0l0.1-0.1l0.1-0.1l0,0c0,0,0.1,0,0.1,0.1
		c0,0,0.1,0,0.1,0.1l0,0l0.3,0.1h0.2h0.1H30h0.3h0.3h0.3h0.3l0.2-0.1h0.1l0.3-0.1l0.3-0.1l0.3-0.2l0.3-0.2l0.3-0.2l0,0
		c0,0,0,0,0.1-0.1C33,25.3,32.9,25.8,32.3,26.4L32.3,26.4L32.3,26.4L32.3,26.4z M33.4,22.5c0,0.3-0.1,0.6-0.2,0.9
		c-0.1,0.2-0.1,0.3-0.2,0.5l0,0L32.9,24l0,0c-0.1,0.1-0.3,0.2-0.4,0.4c-0.1,0.1-0.3,0.2-0.4,0.3c-0.1,0.1-0.3,0.1-0.4,0.2
		S31.5,25,31.4,25c0,0,0,0-0.1,0c-0.1,0-0.3,0.1-0.4,0.1c-0.1,0-0.3,0-0.4,0c-0.1,0-0.3,0-0.4,0c-0.1,0-0.2,0-0.4-0.1
		c-0.1,0-0.1,0-0.2-0.1c0,0-0.1,0-0.1-0.1c-0.1,0-0.2-0.1-0.3-0.1l0,0l0.1-0.1l0.1-0.3l0.1-0.3l0.1-0.3v-0.2H30l0.5-0.1l0.5-0.1
		l0.3-0.1h0.1l0.4-0.1l0.4-0.2l0.4-0.2l0.3-0.2l0.3-0.3l0.2-0.2L33.4,22.5L33.4,22.5L33.4,22.5z M33.8,20.5l-0.1,0.3l-0.1,0.3
		l-0.2,0.3l-0.2,0.3l-0.2,0.3l-0.3,0.2l-0.3,0.2L32,22.7l-0.3,0.2L31.3,23l0,0l-0.4,0.1l-0.4,0.1l-0.4,0.1h-0.4h-0.1h-0.5l0,0h-0.4
		h-0.5l-0.5-0.1l-0.5-0.1L26.8,23l-0.4-0.1l-0.5-0.1l-0.4-0.2l-0.2-0.1L25,22.3l-0.4-0.2l-0.3-0.2l-0.2-0.1l-0.3-0.3l-0.2-0.2l0,0
		l-0.3-0.7l0,0c-0.1-0.4-0.1-0.8-0.1-1.2l0,0l0.1,0.1l0.5,0.3l0.4,0.3l0.5,0.3l0.5,0.2h0.1l0.3,0.2l0.5,0.2l0.5,0.1l0.5,0.1l0.5,0.1
		h0.3h0.2h0.5h0.2h0.4h0.2h0.4l0.5-0.1l0.5-0.1l0.3-0.1h0.2l0.5-0.1l0.5-0.2l0.4-0.2l0.4-0.2l0.4-0.3l0.1-0.1V20L33.8,20.5
		L33.8,20.5L33.8,20.5z M33.6,19.5l-0.3,0.3L33,20l-0.4,0.2l-0.4,0.2l-0.4,0.1l-0.4,0.1h-0.1l-0.4,0.1l-0.5,0.1L29.9,21h-0.3h-0.2
		H29h-0.1h-0.5h-0.2l-0.4-0.1l-0.5-0.1l-0.5-0.1l-0.5-0.1l-0.5-0.2l-0.5-0.2h-0.1L24.8,20l-0.4-0.2L24,19.5l-0.4-0.3L23.4,19l0,0
		c-0.1-0.3-0.2-0.6-0.3-1l0,0h0.1l0.4-0.1l0.3-0.1l0.3-0.1l0.2-0.1l0.2-0.1l0.2-0.2l0,0l0.2,0.1l0.3,0.2l0,0l0.4,0.2l0.4,0.2
		l0.4,0.1l0.4,0.1l0.5,0.1l0.5,0.1h0.3h0.2h0.5h0.3h0.2h0.3h0.1h0.5l0.5-0.1l0.5-0.1h0.1l0.3-0.1l0.4-0.1l0.4-0.2l0.4-0.2l0.4-0.2
		l0.3-0.2l0.3-0.3l0.2-0.3l0.1,0.1l0,0l0.1,0.4l0.1,0.4v0.4v0.4l-0.1,0.3v0.1l-0.1,0.2l-0.4,0.4L33.6,19.5L33.6,19.5L33.6,19.5z
		 M35.8,22.1h-0.1h-0.1h-0.1L35.1,22l0,0l0,0c-0.2-0.1-0.4-0.2-0.6-0.3l0,0l-0.2-0.1l-0.2-0.2l-0.2-0.1L34,21v-0.2l0,0
		c0,0,0,0,0.1,0h0.1l0,0h0.1h0.1l0,0c0.1,0,0.2,0,0.3,0c0.1,0,0.2-0.1,0.3-0.1s0.2-0.1,0.3-0.1c0.1-0.1,0.2-0.1,0.3-0.2
		c0,0,0,0,0.1,0c0.1-0.1,0.1-0.1,0.2-0.2C36,20,36,20,36.1,19.8l0.1-0.1c0,0,0.1-0.1,0.1-0.2l0.1-0.1l0.1-0.1c0.1,0,0.2,0.1,0.3,0.1
		c0.2,0.1,0.3,0.2,0.4,0.4l0,0c0.2,0.4,0.1,0.9,0,1.2l0,0l0,0v0.1l0,0l-0.4,0.4l-0.1,0.1l-0.1,0.1l-0.2,0.1L36.3,22l0,0h-0.1H36
		L35.8,22.1L35.8,22.1L35.8,22.1z M36.3,23.4L36.3,23.4c-0.1,0.1-0.1,0.1-0.1,0.1c-0.1,0-0.1,0-0.1,0s0-0.1,0.1-0.2c0,0,0,0,0.1-0.1
		h0.1l0,0C36.3,23.3,36.3,23.3,36.3,23.4L36.3,23.4L36.3,23.4L36.3,23.4z M36.8,23.8C36.8,23.8,36.8,23.8,36.8,23.8
		c-0.2,0.1-0.3,0.1-0.3,0c-0.1-0.1-0.1-0.3,0-0.4s0.2,0,0.3,0c0,0,0.1,0,0.1,0.1C36.8,23.6,36.9,23.6,36.8,23.8L36.8,23.8L36.8,23.8
		L36.8,23.8z M37.3,24.3l-0.1,0.1c-0.1,0.1-0.2,0.1-0.3,0s0-0.2,0.1-0.4l0.1-0.1c0.1-0.1,0.2-0.1,0.3,0S37.4,24.1,37.3,24.3
		L37.3,24.3L37.3,24.3L37.3,24.3z M38.8,24c-0.3,0.4-0.7,0.1-1-0.2c0-0.1-0.1-0.2-0.3-0.2c-0.1-0.1-0.2-0.2-0.4-0.3
		c-0.1-0.1-0.1-0.1-0.2-0.2c-0.1,0-0.2,0-0.2-0.1c-0.3-0.1-0.4-0.2-0.5-0.3c-0.1-0.1-0.1-0.1,0-0.2c0,0,0.1-0.1,0.2-0.1l0.2-0.1l0,0
		l0.1-0.1l0,0l0.1-0.1l0.1-0.1l0.1-0.1l0,0l0,0l0,0c0.1,0,0.2,0.1,0.3,0.2s0.3,0.2,0.4,0.3c0.4,0.3,0.7,0.7,0.9,1.2
		C37.6,22.6,36.9,22,38.8,24L38.8,24L38.8,24L38.8,24z"/>
	<path class="st2" d="M29.9,10.4c-0.1,0-0.2,0-0.3,0c-0.2,0-0.4,0-0.6,0c-0.3,0-0.6,0-0.9,0l0,0c-0.1,0-0.2,0-0.3-0.1
		c-0.1,0.2-0.2,0.4-0.3,0.5c0.2,0,0.3,0,0.5-0.1c0,0,0.1,0,0.1,0.1c0,0,0,0,0.1,0c0.2,0,0.4,0.2,0.6,0.4c0.1,0.1,0.2,0.1,0.3,0.1
		s0.2-0.1,0.3-0.1c0-0.1,0.1-0.2,0.3-0.3c0.1-0.1,0.3-0.2,0.6-0.3C30.2,10.5,30.1,10.4,29.9,10.4L29.9,10.4L29.9,10.4L29.9,10.4z
		 M29,11L29,11L29,11c-0.2,0-0.6-0.3-0.5-0.3l0,0H29h0.4l0,0C29.6,10.6,29.2,11,29,11L29,11L29,11L29,11z"/>
	<path class="st2" d="M29.6,10c0.4,0,0.7-0.5,0.7-1c0-0.6-0.3-1-0.7-1c-0.2,0-0.4,0.2-0.6,0.4c-0.1,0.2-0.1,0.4-0.1,0.6
		c0,0.2,0,0.4,0.1,0.6C29.1,9.8,29.3,10,29.6,10L29.6,10L29.6,10L29.6,10z M29.6,8.2C29.9,8.2,30,8.5,30,9c0,0.2,0,0.4-0.1,0.5
		c0,0,0-0.1,0-0.2c0-0.4-0.2-0.7-0.4-0.7c-0.2,0-0.4,0.3-0.4,0.7c0,0.1,0,0.1,0,0.2C29,9.4,29,9.2,29,9C29.1,8.5,29.3,8.2,29.6,8.2
		L29.6,8.2L29.6,8.2L29.6,8.2z"/>
	<path class="st2" d="M28.1,10L28.1,10c0.4,0,0.7-0.5,0.7-1c0-0.6-0.3-1-0.6-1l0,0c-0.4,0-0.7,0.5-0.7,1C27.4,9.5,27.7,10,28.1,10
		L28.1,10L28.1,10L28.1,10z M28.1,8.2L28.1,8.2c0.3,0,0.4,0.4,0.4,0.8c0,0.2,0,0.4-0.1,0.5c0,0,0-0.1,0-0.2c0-0.4-0.1-0.6-0.3-0.7
		l0,0c-0.2,0-0.3,0.3-0.3,0.7c0,0.1,0,0.1,0,0.2c-0.1-0.1-0.1-0.3-0.1-0.5C27.6,8.5,27.8,8.2,28.1,8.2L28.1,8.2L28.1,8.2L28.1,8.2z"
		/>
	<path class="st2" d="M22,35.3c-0.1,0-0.2-0.1-0.3-0.1s-0.2,0-0.3,0c-0.1,0-0.3,0-0.3,0.1s0.1,0.3,0.2,0.3c0.1,0.1,0.3,0.1,0.4,0.1
		s0.2,0,0.3,0s0.3,0,0.3-0.2C22.2,35.3,22.1,35.3,22,35.3L22,35.3L22,35.3L22,35.3z"/>
	<path class="st2" d="M22.2,34.5c-0.2-0.1-0.4-0.1-0.6-0.1h-0.1c-0.1,0-0.3,0.1-0.3,0.2c0,0.1,0.1,0.2,0.2,0.2s0.1,0,0.2,0
		c0.2,0.1,0.4,0.1,0.5,0.1c0.1,0,0.3-0.1,0.3-0.2C22.5,34.6,22.3,34.5,22.2,34.5L22.2,34.5L22.2,34.5L22.2,34.5z"/>
	<path class="st2" d="M18.3,9.3C18.3,9.2,18.2,9.2,18.3,9.3c-0.1,0-0.1,0-0.2,0c-0.1,0-0.2,0-0.3,0.1c0,0.1,0,0.1,0.1,0.2
		c0,0,0.1,0,0.2,0l0.1,0.1l0,0c0.1,0,0.3,0,0.3-0.1C18.6,9.5,18.4,9.4,18.3,9.3L18.3,9.3L18.3,9.3L18.3,9.3z"/>
</g>
</svg>
