<?xml version="1.0" encoding="utf-8"?>
<!-- Generator: Adobe Illustrator 22.1.0, SVG Export Plug-In . SVG Version: 6.00 Build 0)  -->
<svg version="1.1" id="Layer_1" xmlns="http://www.w3.org/2000/svg" xmlns:xlink="http://www.w3.org/1999/xlink" x="0px" y="0px"
	 width="140px" height="45px" viewBox="0 0 140 45" style="enable-background:new 0 0 140 45;" xml:space="preserve">
<g>
	<path d="M46.5,14.9c-0.1,0.1-1.2,3.9-1.2,3.9h-3.6l1.2-3.9h-4.2c0,0-3.1,10.3-3.2,10.5c0.2,0,4.1,0,4.2,0C39.7,25.3,41,21,41,21
		h3.6c0,0-1.3,4.2-1.3,4.4c0.2,0,4.1,0,4.2,0c0.1-0.1,3.1-10.3,3.2-10.5C50.5,14.9,46.6,14.9,46.5,14.9z"/>
	<path d="M68.5,16l-0.2,0.2l0.4-1.3h-4.2c0,0-3.1,10.3-3.2,10.5c0.2,0,4.1,0,4.2,0c0.1-0.1,2-6.4,2-6.4c0.3-0.9,1-1.5,1.7-1.5h1.1
		c0.3,0,0.6,0.1,0.8,0.3c0.1,0.2,0.2,0.4,0.2,0.6c0,0.2-0.1,0.4-0.1,0.6c0,0-1.7,5.5-2,6.3c0.2,0,4.1,0,4.2,0
		c0.1-0.1,2.3-7.4,2.3-7.4c0.1-0.2,0.2-0.6,0.2-1c0-0.4-0.1-1-0.4-1.3c-0.4-0.6-1.3-1-2.5-1C70.6,14.7,69.2,15.5,68.5,16z"/>
	<path d="M52,15.7c0.1,0.1,0.6,2.1,0.7,2.2c0.4-0.2,2-0.8,3.3-0.8c1.3,0,2,0.2,2.3,0.6c0.2,0.2,0.2,0.4,0.1,0.7L58,19.2H58
		c-1.7-0.6-3.1-0.6-3.1-0.6c-1.4,0-2.6,0.3-3.6,1c-1,0.6-1.6,1.5-2,2.6c-0.3,1-0.2,1.7,0.2,2.3c0.5,0.7,1.5,1,2.9,1
		c1.3,0,2.7-0.3,3.9-1l0.2-0.1c0,0-0.2,0.6-0.2,0.8c0.2,0,4.1,0,4.2,0c0.1-0.1,2.2-7.3,2.2-7.3c0.1-0.3,0.1-0.6,0.1-0.8
		c0-0.4-0.1-0.9-0.4-1.2c-0.7-0.9-2.2-1.4-4.5-1.4C55,14.7,52.4,15.5,52,15.7z M55.3,20.8c0.3,0,1.4,0,2.1,0.3l0.1,0.1l-0.4,1.5
		h-0.1c-0.7,0.3-1.6,0.5-2.3,0.5c-0.7,0-1.2-0.2-1.4-0.4C53,22.6,53,22.5,53,22.3c0-0.1,0-0.2,0.1-0.3
		C53.3,21.2,54.1,20.8,55.3,20.8z"/>
	<path d="M84.8,14.8c-0.1,0.1-4,3.1-4,3.1l1-3.1h-4.2c0,0-3.2,10.5-3.2,10.7c0.2,0,4.1,0,4.2,0c0.1-0.1,1.3-4.4,1.3-4.4s3,4.2,3,4.4
		c0.1,0,4.2,0,4.5,0c-0.2-0.2-3.9-5.5-3.9-5.5s6-4.9,6.3-5.2C89.4,14.8,84.8,14.8,84.8,14.8z"/>
	<path d="M86.5,20.2L86.5,20.2c-0.4,1.5-0.3,2.9,0.5,3.9c0.9,1.2,2.4,1.8,4.4,1.8c4.6,0,7.2-1.8,8.4-5.8c0.4-1.5,0.3-2.9-0.5-3.9
		c-0.9-1.2-2.4-1.8-4.4-1.8C90.7,14.4,87.6,16.5,86.5,20.2z M90.6,22.5c-0.4-0.5-0.4-1.3-0.1-2.4l0,0c0.4-1.3,1.3-3,3.5-3
		c0.8,0,1.4,0.2,1.7,0.6c0.4,0.5,0.4,1.3,0.1,2.4c-0.4,1.3-1.3,3-3.5,3C91.4,23.1,90.9,22.9,90.6,22.5z"/>
	<path d="M100.4,20.2L100.4,20.2c-0.4,1.5-0.3,2.9,0.5,3.9c0.9,1.2,2.4,1.8,4.4,1.8c4.6,0,7.2-1.8,8.4-5.8c0.4-1.5,0.3-2.9-0.5-3.9
		c-0.8-1.2-2.4-1.8-4.4-1.8C104.6,14.4,101.6,16.5,100.4,20.2z M108,17.2c0.8,0,1.4,0.2,1.7,0.6c0.3,0.5,0.4,1.3,0.1,2.4
		c-0.4,1.3-1.3,3-3.5,3c-0.8,0-1.4-0.2-1.7-0.6c-0.4-0.5-0.4-1.3-0.1-2.4l0,0C104.9,18.8,105.9,17.2,108,17.2z"/>
	<path d="M123.2,14.8c-0.1,0.1-4.1,3.4-4.1,3.4l1.1-3.4H116c0,0-3.2,10.6-3.3,10.8c0.2,0,4.1,0,4.2,0c0.1-0.1,1.3-4.4,1.3-4.4
		s3.2,4.4,3.3,4.4c0.1,0,4.3,0,4.6,0c-0.2-0.2-4.1-5.5-4.1-5.5s5.6-5.1,6-5.3C127.6,14.8,123.2,14.8,123.2,14.8z"/>
	<path d="M36.7,13.1l-0.1-0.5h-3.5c0.4,4.2-2.5,8.8-6.6,10l0,0l0,0c0,0-0.1,0-0.1-0.1v-0.1l0,0c3.4-2.3,5.3-6,4.9-9.8h-3.5
		c0.2,3.4-2.1,6.5-5.6,7.8c0,0-0.1,0-0.1-0.1v-0.1l0,0c2.5-1.7,4-4.3,4-7.7h-3.5c-0.1,4-3.6,6.8-10.7,6.8c0.1,0.1,0.2,0.1,0.3,0.2
		c4.6,2.5,7,4.1,10.4,6.8c0.5,0.4,1.2,0.7,2,0.7C33.9,26.4,37.2,18.4,36.7,13.1z"/>
	<g>
		<g>
			<path d="M58.5,29.7c-0.1,0.3-0.2,0.5-0.4,0.7c-0.2,0.2-0.5,0.3-0.8,0.4C57,31,56.7,31,56.3,31h-1.1l-0.4,1.3h-1l1.2-3.8h2.2
				c0.3,0,0.6,0.1,0.8,0.1c0.2,0.1,0.4,0.2,0.5,0.4C58.6,29.2,58.6,29.5,58.5,29.7z M57.4,29.7c0.1-0.2,0-0.3-0.1-0.4
				c-0.1-0.1-0.3-0.1-0.5-0.1h-1.2l-0.3,1h1.2c0.2,0,0.4-0.1,0.6-0.1C57.3,30.1,57.4,29.9,57.4,29.7z"/>
			<polygon points="61.9,32.3 58.2,32.3 59.4,28.6 62.9,28.6 62.7,29.3 60.2,29.3 60,30 61.5,30 61.3,30.7 59.7,30.7 59.5,31.6 
				62.1,31.6 			"/>
			<path d="M66.7,32.3h-1.2L65.1,31H64l-0.4,1.3h-1l1.2-3.8h2.4c0.3,0,0.6,0.1,0.8,0.1c0.2,0.1,0.4,0.2,0.5,0.4
				c0.1,0.2,0.1,0.4,0.1,0.7c-0.2,0.6-0.6,1-1.3,1.1L66.7,32.3z M66.5,29.7c0.1-0.2,0-0.3-0.1-0.4c-0.1-0.1-0.3-0.1-0.5-0.1h-1.3
				l-0.3,1h1.3C66.1,30.2,66.4,30.1,66.5,29.7z"/>
			<polygon points="71.9,29.3 69.3,29.3 69.1,30 70.6,30 70.4,30.7 68.9,30.7 68.4,32.3 67.3,32.3 68.5,28.6 72.2,28.6 			"/>
			<path d="M76,30.5c-0.1,0.4-0.3,0.7-0.6,1c-0.3,0.3-0.6,0.5-1,0.7c-0.4,0.2-0.8,0.2-1.3,0.2c-0.4,0-0.8-0.1-1.1-0.2
				c-0.3-0.2-0.4-0.4-0.6-0.7c-0.1-0.3-0.1-0.6,0.1-1c0.1-0.4,0.3-0.7,0.6-1c0.3-0.3,0.6-0.5,1-0.7c0.4-0.2,0.8-0.2,1.3-0.2
				s0.8,0.1,1.1,0.2c0.3,0.2,0.4,0.4,0.6,0.7S76.1,30.1,76,30.5z M74.9,30.5c0.1-0.2,0.1-0.4,0.1-0.6c0-0.2-0.1-0.3-0.3-0.4
				c-0.2-0.1-0.3-0.2-0.6-0.2s-0.5,0.1-0.7,0.2c-0.2,0.1-0.4,0.2-0.5,0.4c-0.1,0.2-0.2,0.4-0.3,0.6c-0.1,0.2-0.1,0.4-0.1,0.6
				c0,0.2,0.1,0.3,0.3,0.4c0.2,0.1,0.3,0.2,0.6,0.2s0.5-0.1,0.7-0.2c0.2-0.1,0.4-0.2,0.5-0.4C74.7,30.9,74.8,30.7,74.9,30.5z"/>
			<path d="M80,32.3h-1.2L78.3,31h-1.1l-0.4,1.3h-1l1.2-3.8h2.4c0.3,0,0.6,0.1,0.8,0.1c0.2,0.1,0.4,0.2,0.5,0.4
				c0.1,0.2,0.1,0.4,0.1,0.7c-0.2,0.6-0.6,1-1.3,1.1L80,32.3z M79.7,29.7c0.1-0.2,0-0.3-0.1-0.4c-0.1-0.1-0.3-0.1-0.5-0.1h-1.3
				l-0.3,1h1.3C79.3,30.2,79.6,30.1,79.7,29.7z"/>
			<path d="M85.4,32.3h-1.1l0.4-1.4c0-0.1,0.1-0.2,0.1-0.3c0.1-0.1,0.1-0.2,0.1-0.3c0.1-0.1,0.1-0.2,0.1-0.2
				c-0.1,0.1-0.2,0.2-0.2,0.3c-0.1,0.1-0.2,0.2-0.3,0.3l-1.6,1.7l-0.6-1.7c-0.1-0.1-0.1-0.2-0.1-0.3c-0.1-0.1-0.1-0.2-0.1-0.3
				c0,0.1-0.1,0.1-0.1,0.2c-0.1,0.1-0.1,0.2-0.1,0.3C82,30.7,82,30.9,82,30.9l-0.4,1.4h-1l1.2-3.8h1l0.6,1.7
				c0.1,0.1,0.1,0.2,0.1,0.3c0.1,0.1,0.1,0.2,0.1,0.3c0.1-0.1,0.1-0.2,0.2-0.3c0.1-0.1,0.2-0.2,0.3-0.3l1.6-1.7h1L85.4,32.3z"/>
			<path d="M90.6,32.3h-1.1l-0.2-0.8h-1.9l-0.7,0.8h-1.1l3.1-3.8h1L90.6,32.3z M89.2,30.7l-0.1-0.7c0-0.1-0.1-0.2-0.1-0.3
				c0-0.1,0-0.2,0-0.3c-0.1,0.1-0.1,0.2-0.2,0.3c-0.1,0.1-0.2,0.2-0.2,0.3l-0.6,0.7H89.2z"/>
			<path d="M95.2,32.3h-0.9L93,30.2c-0.1-0.1-0.1-0.2-0.1-0.2c-0.1-0.1-0.1-0.2-0.1-0.2c0,0.1-0.1,0.1-0.1,0.2
				c-0.1,0.1-0.1,0.2-0.1,0.3c-0.1,0.1-0.1,0.2-0.1,0.3l-0.5,1.7h-1l1.2-3.8h1l1.2,2c0.1,0.1,0.1,0.2,0.1,0.2
				c0.1,0.1,0.1,0.2,0.1,0.2c0-0.1,0.1-0.1,0.1-0.2c0-0.1,0.1-0.2,0.1-0.3c0.1-0.1,0.1-0.2,0.1-0.3l0.5-1.6h1L95.2,32.3z"/>
			<path d="M100.7,29.3l-1.1,0.3c-0.1-0.1-0.2-0.2-0.3-0.3c-0.1-0.1-0.3-0.1-0.6-0.1c-0.4,0-0.7,0.1-1,0.3c-0.3,0.2-0.4,0.5-0.6,0.8
				c-0.1,0.2-0.1,0.4-0.1,0.6c0.1,0.2,0.1,0.3,0.3,0.4c0.2,0.1,0.3,0.2,0.6,0.2c0.2,0,0.4-0.1,0.6-0.1c0.2-0.1,0.4-0.2,0.6-0.4
				l0.8,0.4c-0.3,0.3-0.6,0.5-1,0.6c-0.3,0.2-0.8,0.2-1.2,0.2c-0.4,0-0.8-0.1-1.1-0.2c-0.3-0.2-0.5-0.4-0.6-0.7
				c-0.1-0.3-0.1-0.6,0.1-1.1c0.1-0.4,0.3-0.7,0.6-1s0.6-0.5,1-0.7c0.4-0.2,0.8-0.2,1.3-0.2c0.5,0,0.8,0.1,1.1,0.2
				C100.5,28.9,100.7,29.1,100.7,29.3z"/>
			<polygon points="104,32.3 100.3,32.3 101.4,28.6 105,28.6 104.8,29.3 102.3,29.3 102.1,30 103.6,30 103.3,30.7 101.8,30.7 
				101.6,31.6 104.2,31.6 			"/>
			<polygon points="110.8,29.3 109.3,29.3 108.4,32.3 107.4,32.3 108.3,29.3 106.8,29.3 107,28.6 111.1,28.6 			"/>
			<polygon points="111.6,32.3 110.6,32.3 111.7,28.6 112.7,28.6 			"/>
			<path d="M116.7,32.3h-1.2L115,31H114l-0.4,1.3h-1l1.2-3.8h2.4c0.3,0,0.6,0.1,0.8,0.1c0.2,0.1,0.4,0.2,0.5,0.4
				c0.1,0.2,0.1,0.4,0.1,0.7c-0.2,0.6-0.6,1-1.3,1.1L116.7,32.3z M116.4,29.7c0.1-0.2,0-0.3-0.1-0.4c-0.1-0.1-0.3-0.1-0.5-0.1h-1.3
				l-0.3,1h1.3C116,30.2,116.3,30.1,116.4,29.7z"/>
			<polygon points="121,32.3 117.3,32.3 118.4,28.6 122,28.6 121.8,29.3 119.2,29.3 119,30 120.5,30 120.3,30.7 118.8,30.7 
				118.5,31.6 121.2,31.6 			"/>
			<path d="M125.5,31.2c-0.1,0.4-0.3,0.7-0.7,0.9c-0.4,0.2-1,0.3-1.6,0.3c-0.4,0-0.8-0.1-1.1-0.2c-0.3-0.1-0.6-0.3-0.7-0.5l0.9-0.5
				c0.1,0.2,0.3,0.3,0.5,0.3s0.4,0.1,0.7,0.1c0.3,0,0.6-0.1,0.7-0.1c0.2-0.1,0.3-0.2,0.3-0.3c0-0.1,0-0.2,0-0.2
				c-0.1-0.1-0.1-0.1-0.3-0.2c-0.2-0.1-0.4-0.1-0.7-0.2s-0.6-0.1-0.8-0.2c-0.2-0.1-0.4-0.2-0.4-0.3c-0.1-0.2-0.1-0.3,0-0.6
				c0.1-0.2,0.2-0.4,0.4-0.6c0.2-0.2,0.5-0.3,0.8-0.4c0.3-0.1,0.6-0.1,1-0.1c0.4,0,0.7,0.1,1,0.2c0.3,0.1,0.5,0.2,0.7,0.4l-0.9,0.5
				c-0.1-0.1-0.3-0.2-0.4-0.3c-0.2-0.1-0.4-0.1-0.6-0.1c-0.3,0-0.5,0.1-0.6,0.1c-0.1,0.1-0.2,0.2-0.2,0.2c0,0.1,0,0.2,0.1,0.2
				c0.1,0.1,0.1,0.1,0.3,0.1c0.1,0.1,0.3,0.1,0.6,0.1c0.2,0.1,0.4,0.1,0.6,0.1c0.2,0.1,0.3,0.1,0.5,0.2c0.2,0.1,0.2,0.2,0.3,0.3
				C125.6,30.8,125.6,31,125.5,31.2z"/>
		</g>
	</g>
</g>
</svg>
