<?xml version="1.0" encoding="utf-8"?>
<!-- Generator: Adobe Illustrator 22.1.0, SVG Export Plug-In . SVG Version: 6.00 Build 0)  -->
<svg version="1.1" id="Layer_1" xmlns="http://www.w3.org/2000/svg" xmlns:xlink="http://www.w3.org/1999/xlink" x="0px" y="0px"
	 viewBox="0 0 140 45" style="enable-background:new 0 0 140 45;" xml:space="preserve">
<g>
	<path d="M23.9,16.5l1.2-0.7L23.9,16.5L23.9,16.5z M19.2,18.1c1.6-0.3,4-1.8,4.9-3C22.7,15.1,19.7,16.8,19.2,18.1L19.2,18.1z
		 M12.3,26.2c0.8,1.6,0,2.5,1.5,2.5H16c1.3,0,1.3-1.2,2.2-1.5v-2.9h-1.5v-0.7h1.2v-1.8l-0.6,1.3l-2.1,1.3l-0.9-2.2l0.6-3.4l4.9-3.7
		h-6.4c-0.3,1.4-1.7,4.4-1.5,6.4L12.3,26.2L12.3,26.2z M23.2,18.8c3.9-0.1,2.8-2.8,5.5-2.9l-3.5,3.2l-0.2,0.5c2.9-0.2,2.2-2,4.4-2.5
		v-2H28C27.2,15.1,23.5,18.1,23.2,18.8L23.2,18.8z M25.1,21.8c1.7-1.2,3.8-1.5,4.4-3.7c-2.2,0.6,0.1,0.9-2.2,1.8
		C25.7,20.5,25.3,19.8,25.1,21.8L25.1,21.8z M26.9,22.2c1.6-0.3,2.2-0.2,2.5-1.8C28.8,20.5,27.4,21.6,26.9,22.2L26.9,22.2z
		 M26.9,24.4c1.2-0.3,2.3-0.7,2.5-1.8C28.2,22.9,27.3,23.1,26.9,24.4L26.9,24.4z M17.7,21.8c2.3,1.3,2.5-0.7,2.7,2.3l0.6,0.6h-0.7
		v0.7l-1.4,0.5c2.5,0,4-0.1,4-2.5c0-0.7-2-2.2-3.4-2.2h-0.7C17.8,21,18.2,21.1,17.7,21.8L17.7,21.8z M29.6,25l-0.1-0.9l-1.2,0.7
		L29.6,25L29.6,25z M18.9,25.9l1.5-0.5v-0.7h0.7l-0.6-0.6c-0.1-3-0.5-1.2-2.7-2.3v1.8h-1.2v0.7h1.5v3c-0.9,0.3-0.9,1.5-2.2,1.5h-2.3
		c-1.5,0-0.7-1-1.5-2.5c-0.3-1.6-1.2-2.7-1.2-4.4v-1.6l0.7-5.2H7.4v14.8h20.7c-0.1-1.7-1.5-4.4-3.4-4.4c-1.4,0-2,3.7-3.7,3.7
		c-1,0-1-0.2-1.8-0.3L18.9,25.9L18.9,25.9z"/>
	<polygon points="45.8,21.5 50.2,21 51.7,15.1 33.6,15.1 32.1,21 37,21 34.8,29.9 43.6,29.9 	"/>
	<path d="M62.1,24.7c0,8.3,15,4.9,19.5,4.3l0.7-3.1l0.7-3.7h-7.4l-1.2,4h-1.3c-1.3,0-2.5-0.7-2.5-1.8V24c0-2.8,2.8-3.7,5.5-3.7h3.4
		l4,0.3c0.2-0.5,1.5-4.2,1.3-4.7c-0.2-1-3.6-1.2-5.1-1.2h-5.2C68.8,14.8,62.1,17.6,62.1,24.7L62.1,24.7z"/>
	<path d="M97.7,18.7l0.1,4.9l-3.1-0.1L97.7,18.7L97.7,18.7z M83.8,27.4l-1.3,2.4l8,0.1c1.2,0,0.7,0.2,1.5-1.8h5.9v1.8h8.9l-1.7-14.8
		H92.4C91,15.1,85.1,25.2,83.8,27.4L83.8,27.4z"/>
	<path d="M51.3,24.4l-1.3,5.4h8c0.7,0,0.7-0.1,1.2-0.3l3.7-14v-0.3h-0.7h-8.1L51.3,24.4L51.3,24.4z"/>
	<path d="M119.3,19.2h3.4c0.8,0,1.2,0.2,1.2,1.2c0,1.2-1.4,1.8-2.5,1.8h-2.7L119.3,19.2L119.3,19.2z M116.8,29.9l0.7-4.4h0.6
		l1.6,3.2c0.6,0.7,0.5,1.2,1.5,1.2h9.2l-4.2-6.2c3.1-0.3,6.4-2.2,6.4-5.2v-1.2c0-1.2-1.6-2.2-3-2.2h-18l-3.8,14.8H116.8L116.8,29.9z
		"/>
</g>
</svg>
