<?xml version="1.0" encoding="utf-8"?>
<!-- Generator: Adobe Illustrator 22.1.0, SVG Export Plug-In . SVG Version: 6.00 Build 0)  -->
<svg version="1.1" id="Layer_1" xmlns="http://www.w3.org/2000/svg" xmlns:xlink="http://www.w3.org/1999/xlink" x="0px" y="0px"
	 viewBox="0 0 140 45" style="enable-background:new 0 0 140 45;" xml:space="preserve">
<g>
	<path d="M63.6,23.3l-1,3.8c-0.2,0-0.5,0-0.9,0c-2,0-1.8-0.6-1-3.9c0.9-3.4,1.4-4.1,2.7-4.1c1.2,0,1.2,0.8,0.9,1.8h3.1
		c0.5-1.9,0.2-3.6-3.5-3.6c-4,0-5.1,0.8-6.4,5.9c-1.2,4.6-0.8,5.9,3.5,5.9c2.1,0,2.9-0.1,4.2-0.4l1.4-5.4
		C66.6,23.3,63.6,23.3,63.6,23.3z"/>
	<path d="M70.9,27c-0.4,0-0.6-0.1-0.5-0.5l0.7-2.7h4.1l0.5-1.8h-4.1l0.5-1.8c0.1-0.5,0.4-0.9,1.1-0.9h3.3l0.5-1.8h-4.8
		c-2,0-2.6,0.4-3.4,3.4l-1.4,5.5C67,28.2,67.5,29,69,29h4.1c0.8,0,1.3-0.4,1.6-1.1l0.4-0.9C75.1,27,70.9,27,70.9,27z"/>
	<path d="M118.2,27c-0.4,0-0.5-0.1-0.5-0.5l0.7-2.7h4.1l0.5-1.8h-4.1l0.5-1.8c0.1-0.5,0.5-0.9,1.1-0.9h3.3l0.5-1.8h-4.8
		c-2,0-2.6,0.4-3.4,3.4l-1.4,5.5c-0.4,1.8,0.1,2.6,1.6,2.6h4.1c0.8,0,1.3-0.4,1.6-1.1l0.4-0.9C122.3,27,118.2,27,118.2,27z"/>
	<path d="M50.3,27h-0.8l2-7.7c0.3,0,0.4,0,1,0c1.8,0,1.8,0.6,0.9,3.9C52.4,26.6,51.9,27,50.3,27L50.3,27z M52.8,17.5h-4.1l-2.9,11.1
		c0,0.2,0.1,0.4,0.3,0.4h3.7c4.6,0,5.4-0.9,6.7-5.8C57.5,19,56.8,17.5,52.8,17.5L52.8,17.5z"/>
	<path d="M110.5,17.5c-2.4,0-3.5,0-4.1,0l-2.9,11.1c0,0.2,0.1,0.4,0.3,0.4h2.8l2.5-9.7c0.3,0,0.7,0,1,0c1.4,0,1.5,0.5,1.2,1.8
		l-1.9,7.5c0,0.2,0.1,0.4,0.3,0.4h2.8l2-7.8C115,18.4,113.8,17.5,110.5,17.5L110.5,17.5z"/>
	<path d="M86.7,17.5l-0.5,1.9h3.1l0,0c-0.5,0.4-0.8,0.9-0.9,1.4l-2,7.7c0,0.2,0.1,0.4,0.3,0.4h3l2.5-9.6h1.5c0.9,0,1.4-0.4,1.7-1.1
		l0.3-0.8h-9V17.5z"/>
	<path d="M43.8,29l2.9-11.1c0-0.2,0-0.4-0.2-0.4h-2.9l-2.9,11.1c0,0.2,0,0.4,0.2,0.4H43.8z"/>
	<path d="M97.8,27.2c-1.3,0-1.5-0.5-0.6-4c0.8-3,1.5-4,2.7-4c1.3,0,1.5,0.7,0.6,4S98.8,27.2,97.8,27.2L97.8,27.2z M100.3,17.4
		c-3.5,0-5,0.6-6.3,5.9c-1.2,4.6-0.2,5.9,3.3,5.9c3.6,0,5-0.7,6.3-5.9C104.4,19.5,104.3,17.4,100.3,17.4L100.3,17.4z"/>
	<path d="M17.6,23.3l1.8-6.3c0.2-0.6,0.9-1.2,1.6-1.2h5.5c0.1,0,0.1,0.1,0,0.2c-2.8,1.9-6.2,4.8-8.7,7.4
		C17.7,23.5,17.6,23.4,17.6,23.3L17.6,23.3z"/>
	<path d="M21.9,27.1l1.8-6.2c0-0.1-0.1-0.1-0.1-0.1c-2.6,2.3-5.8,5.6-7.8,8c0,0.1,0,0.2,0.1,0.2h7.7c3.2,0,5-1,5.7-3.4
		c0.5-2-0.5-3.3-2.1-3.6v-0.1c1.4-0.3,2.8-0.8,3.3-2.8c0.5-2.2-1.1-3.4-3.1-3.3l-3,10.3c-0.2,0.6-0.7,1-1.3,1H21.9z"/>
	<path d="M38.8,24.4c-0.1-0.3-0.2-0.6-0.4-0.8c0,0,0,0,0-0.1c1.3-0.4,2.2-1.2,2.5-2.6c0.5-1.9-0.7-3.4-3.6-3.4h-4.4l-2.9,11.1
		c0,0.2,0.1,0.4,0.3,0.4H33l2.5-9.7c0.3,0,0.5,0,1.2,0c1.1,0,1.4,0.7,1.2,1.5c-0.3,1.2-1.2,1.8-2.3,1.8h-0.4l1.1,5.5
		c0.1,0.6,0.4,0.8,1,0.8h2.5L38.8,24.4z"/>
	<path d="M76.3,25.1c-1.2,2.8,0.4,4.1,3.5,4.1c2.8,0,4.4-0.7,5.1-3.3c0.2-0.9,0.1-1.8-0.5-2.4c-1.1-1.2-3.1-1.4-3.8-2.1
		c-0.4-0.3-0.4-0.8-0.3-1.2c0.2-0.7,0.7-1.2,1.5-1.2c1.3,0,1.3,0.8,1,1.7h2.7c0.7-1.9-0.2-3.5-3.4-3.5c-2.7,0-4.2,1.1-4.7,3.1
		c-0.1,0.6-0.1,1.5,0.3,2.1c0.7,1.3,2.7,1.4,3.8,2.2c0.5,0.3,0.5,0.8,0.4,1.3c-0.3,1-0.7,1.4-1.7,1.4c-0.9,0-1.5-0.5-1-2.2
		C79.1,25.1,76.3,25.1,76.3,25.1z"/>
</g>
</svg>
