<?xml version="1.0" encoding="utf-8"?>
<!-- Generator: Adobe Illustrator 22.1.0, SVG Export Plug-In . SVG Version: 6.00 Build 0)  -->
<svg version="1.1" id="Layer_1" xmlns="http://www.w3.org/2000/svg" xmlns:xlink="http://www.w3.org/1999/xlink" x="0px" y="0px"
	 viewBox="0 0 140 45" style="enable-background:new 0 0 140 45;" xml:space="preserve">
<style type="text/css">
	.st0{fill:#FFFFFF;}
</style>
<g>
	<polygon points="15.8,7.1 124.2,7.1 124.2,37.9 15.8,37.9 15.8,7.1 	"/>
	<g>
		<polygon class="st0" points="72.3,28.1 78.3,28.1 78.3,25.8 72.3,25.8 72.3,24.3 78.6,24.3 78.6,22 66.3,22 66.3,31.8 78.8,31.8 
			78.8,29.6 72.3,29.6 		"/>
		<polygon class="st0" points="87.6,22 81.9,22 81.9,31.8 93.1,31.8 93.1,29.6 87.6,29.6 		"/>
		<g>
			<path class="st0" d="M61.1,28.3c0.9-0.3,2.1-1.6,2.1-2.8c0-2.2-1.3-3.5-3.2-3.5H48.6v9.8h5.5v-3h1.5l1.6,3h6.5L61.1,28.3z
				 M56.8,26.4h-2.7v-2.2h2.7c0.6,0,1.1,0.5,1.1,1.1C57.9,26,57.4,26.4,56.8,26.4z"/>
		</g>
		<rect x="39.3" y="22" class="st0" width="5.5" height="9.8"/>
		<path class="st0" d="M111.3,13.2H26.4v18.6h9.2V20.1h75.6c2.7,0,3.5-2.4,3.5-3.5C114.8,15.4,113.6,13.2,111.3,13.2z M100.6,17.7
			H35.8v-2.3h64.9c0.6,0,1.2,0.5,1.2,1.1C101.8,17.1,101.3,17.7,100.6,17.7z"/>
		<polygon class="st0" points="100.3,22 94.8,22 94.8,31.8 105.8,31.8 105.8,29.6 100.3,29.6 		"/>
		<rect x="107.6" y="22" class="st0" width="5.5" height="9.8"/>
	</g>
</g>
</svg>
