<?xml version="1.0" encoding="utf-8"?>
<!-- Generator: Adobe Illustrator 22.1.0, SVG Export Plug-In . SVG Version: 6.00 Build 0)  -->
<svg version="1.1" id="Layer_1" xmlns="http://www.w3.org/2000/svg" xmlns:xlink="http://www.w3.org/1999/xlink" x="0px" y="0px"
	 width="140px" height="45px" viewBox="0 0 140 45" style="enable-background:new 0 0 140 45;" xml:space="preserve">
<g>
	<path d="M45.9,17.1c-3.2-0.1-6.1,2.4-6.7,5.8c-0.8,3.4,1.4,6.3,5.1,6.2c3.7-0.1,6.5-1.5,7.4-6C52.4,19.2,49.3,17.2,45.9,17.1
		L45.9,17.1L45.9,17.1z M46.9,20.8c-0.4,1.8-0.8,3.6-1.4,5.3c-0.2,0.7-0.7,1.5-1.3,1.4c-0.6-0.1-0.6-1.1-0.5-1.8
		c0.3-1.9,0.9-3.8,1.4-5.6c0.3-0.9,0.6-1.6,1.3-1.6C47.4,18.8,47,20.2,46.9,20.8L46.9,20.8L46.9,20.8z"/>
	<path d="M32.6,17.1c-3.2-0.1-6.1,2.4-6.8,5.8c-0.7,3.4,1.4,6.3,5.1,6.2c3.6-0.1,6.6-1.5,7.4-6C39,19.2,35.9,17.2,32.6,17.1
		L32.6,17.1L32.6,17.1z M33.5,20.8c-0.4,1.8-0.9,3.6-1.4,5.3c-0.2,0.7-0.7,1.5-1.4,1.4c-0.6-0.1-0.6-1.1-0.4-1.8
		c0.3-1.9,0.8-3.8,1.3-5.6c0.4-0.9,0.6-1.6,1.3-1.6C34.1,18.8,33.6,20.2,33.5,20.8L33.5,20.8L33.5,20.8z"/>
	<path d="M18.9,26c-0.1,0.4-0.4,0.9-1.1,0.8c-0.8,0.1-0.8-0.7-0.8-1.1l0,0l1.4-5.5c0.2-0.7,0.6-1.2,1.6-1.1c0.8,0,1.3,0.4,1.8,0.9
		l0,0l1.3-1.6c-1.1-0.8-2.4-1.2-3.8-1.3c-4.6,0.1-7.1,2.8-7.8,5.4c-0.8,2.4,0,6.3,4.1,6.5l0,0h7.2l1.6-6.5h-5.1L18.9,26L18.9,26z"/>
	<path d="M72,16.9c0.1-0.1,0.1-0.1,0.1-0.2c-0.1-0.7-0.1-1.2-0.2-1.8l0,0h0.1l-0.3-0.5l-4,2.6c0.3,0.7,0.7,1.4,1,2.2l0,0L72,16.9
		L72,16.9z"/>
	<path d="M71.7,26.3c0.3-0.3,0.7-0.7,1-1l0,0L73,25l0.4-0.3l0.4-0.3l0.5-0.3l0.4-0.3l0.5-0.3l0.5-0.3l0.6-0.3l0.1-0.1l-0.9-1.7
		c-0.3,0.4-0.8,0.9-1.3,1.3l0,0l-0.8-0.8l-0.5-0.6c-0.1-0.3-0.3-0.5-0.3-0.7l0,0l-3.4,2l2.2,4L71.7,26.3L71.7,26.3z"/>
	<path d="M72.1,20.2L69,20c0.1,0.4,0.1,0.8,0,1.3c0,0.2-0.1,0.5-0.2,0.8l0,0L72.1,20.2L72.1,20.2z"/>
	<path d="M72,17.6l-2.7,2l3,0.1c-0.1-0.2-0.1-0.3-0.1-0.6l0,0L72,18.4C72,18.1,72,17.8,72,17.6L72,17.6L72,17.6z"/>
	<polygon points="95.7,23.9 98.4,23.9 99,21.6 96.2,21.6 96.8,19.4 101,19.4 101.5,17.3 92,17.3 89.1,29.1 98.6,29.1 99.2,26.7 
		95,26.7 	"/>
	<polygon points="88.5,17.3 85.2,21.3 84.2,17.3 78.4,17.3 80.4,23.9 79.1,29.1 84.7,29.1 85.8,24.2 91.4,17.3 	"/>
	<path d="M125,17.3h-8.2l-3.3,11.8h5.7l1.3-4.3l1.1,4.3h5.5l-1.2-4.5c1.6-0.9,2.3-1.9,2.6-3.9C128.7,17.7,126.4,17.4,125,17.3
		L125,17.3L125,17.3z M122.9,19.6c-0.1,0.9-0.3,1.8-0.5,2.7c-0.2,0.5-0.3,1.1-1.1,1.1l0,0h-0.7l0.9-4.5h0.9
		C122.8,18.7,123.1,19.2,122.9,19.6L122.9,19.6z"/>
	<path d="M106.6,17.3l-7.2,11.8h2.5l1.2-2h3.8l0.3,2h5.3l-1.4-11.8H106.6L106.6,17.3z M104.5,25l1.9-3.1l0.3,3.1H104.5L104.5,25z"/>
	<path d="M61.3,17.3h-7.1l-3,11.8h6.8c5.1-0.1,6.9-3.4,7.4-6.6C66,19.3,64,17.5,61.3,17.3L61.3,17.3z M60.7,20.6L59.3,26
		c-0.2,0.7-0.5,1.3-1.4,1.3l0,0H57l2.2-8.2h1.2C60.7,19.2,61,19.7,60.7,20.6L60.7,20.6L60.7,20.6z"/>
	<path d="M80.8,16.5c-0.1-0.4-0.5-0.6-0.8-0.8c0.8-0.3,1.6-0.3,1.8-0.6c0.1-0.1-0.1-0.3-0.5-0.7l0,0l4.3-0.1c1.5,0,3.4-1.4,3.5-2.8
		c-0.4,0.3-1.1,0.5-1.7,0.6l0,0l-9-0.1c-1.6-0.2-3.4,0-4.2,0.5c-1.3,1-1.3,2.5-1,4c-0.2,1.7,0.3,3.6,1.3,4.5
		c0.6-0.6,1.1-1.2,1.3-2.1c0.2,0.3,0.5,0.5,0.8,0.6c0.3-0.6,0.3-1.1,0.3-1.7c0.2,0.3,0.4,0.5,0.8,0.6c0.3-0.8,0.3-1.5,0.3-2.2
		C78.7,16.9,79.8,17,80.8,16.5L80.8,16.5L80.8,16.5z M75,17.9c-0.3-0.2-0.7-0.5-1.1-0.7c0-0.4,0-0.9-0.3-1.3
		c0.4,0.3,0.9,0.4,1.4,0.5C75,17,75,17.5,75,17.9L75,17.9L75,17.9z M77.7,14.6c-0.3,0.5-0.8,0.7-1.4,0.5c-0.6,0.3-1.2,0.3-1.8-0.1
		c0.6-0.3,1.1-0.5,1.3-1c0.8,0.2,1.3,0.2,1.6-0.6c0.6,0.3,1.2,0.3,1.8,0.1C78.9,14.2,78.5,14.6,77.7,14.6L77.7,14.6L77.7,14.6z"/>
	<path d="M76.6,23.6l-0.5,0.3L75.6,24l-0.5,0.3l-0.4,0.3l-0.4,0.3l-0.5,0.3l-0.3,0.3l-0.4,0.3l-0.7,0.7l-0.7,0.7
		c-0.8,0.8-1.6,1.6-2.4,2.4l0,0L68.8,30l-0.3,0.3l-0.3,0.3l-0.3,0.3l-0.3,0.3l-0.5,0.3l-0.3,0.3l-0.5,0.2l-0.4,0.3l-0.6,0.3
		l-0.4,0.3l0.6,0.8c5.8-2.4,6.1-6.6,12.1-9.3l0,0L77,23.4L76.6,23.6L76.6,23.6z"/>
	<path d="M65.3,31.8l0.5-0.3l0.3-0.3l0.5-0.2l0.3-0.3l0.4-0.3l0.3-0.3l0.7-0.5l0.6-0.6c0.7-0.7,1.3-1.5,2-2.2l0,0l0.1-0.1l-2.4-4.3
		c-0.8,1.6-2.7,4.1-3,6.7c-1.1,0.8-2.4,1.8-1.6,3.1l0,0h0.1l0.5-0.3L65.3,31.8L65.3,31.8z"/>
</g>
</svg>
